<svg id="Layer_1" data-name="Layer 1" xmlns="http://www.w3.org/2000/svg" viewBox="0 0 62.06 57.31"><defs><style>.cls-1{fill:#3657a5;}.cls-2{fill:#dc2627;}</style></defs><path class="cls-1" d="M21.4,46.91A25.88,25.88,0,0,1,3,39.3.94.94,0,1,1,4.35,38a24.08,24.08,0,0,0,34.05-34,.94.94,0,0,1,1.33-1.33,25.79,25.79,0,0,1,7.54,18.29,25.8,25.8,0,0,1-25.87,26Z"/><path class="cls-1" d="M31.29,57.31A31.45,31.45,0,0,1,9,48a30.64,30.64,0,0,1-6.18-9,.94.94,0,0,1,1.72-.77,28.48,28.48,0,0,0,5.8,8.45A29.33,29.33,0,0,0,43,52.94,28.85,28.85,0,0,0,58.25,36.61a28.89,28.89,0,0,0-.59-22.18.94.94,0,0,1,1.72-.77A30.83,30.83,0,0,1,60,37.28,30.75,30.75,0,0,1,43.77,54.66,30.43,30.43,0,0,1,31.29,57.31Z"/><path class="cls-1" d="M28.69,51.82c-.59,0-1.19,0-1.78-.07a.94.94,0,0,1-.88-1,.93.93,0,0,1,1-.87,24.28,24.28,0,0,0,23.69-14,23.81,23.81,0,0,0,.55-18.47A23.89,23.89,0,0,0,38.79,4a.94.94,0,1,1,.78-1.72A26.16,26.16,0,0,1,52.44,36.68,26.14,26.14,0,0,1,28.69,51.82Z"/><path class="cls-2" d="M21.19,42.39A21.2,21.2,0,1,1,42.39,21.2,21.22,21.22,0,0,1,21.19,42.39Zm0-40.51A19.32,19.32,0,1,0,40.51,21.2,19.34,19.34,0,0,0,21.19,1.88Z"/><rect class="cls-1" x="50.03" y="3.98" width="4.01" height="4.01" rx="0.42" transform="translate(5.65 30.32) rotate(-34.25)"/><rect class="cls-1" x="56.29" y="4.42" width="2.17" height="2.17" rx="0.42" transform="translate(5.78 31.21) rotate(-31.96)"/><rect class="cls-1" x="55.25" y="8.77" width="3.01" height="3.01" rx="0.42" transform="translate(2.05 28.55) rotate(-28.74)"/></svg>