<svg id="Layer_1" data-name="Layer 1" xmlns="http://www.w3.org/2000/svg" viewBox="0 0 286.06 51.66"><defs><style>.cls-1{fill:#3657a5;}.cls-2{fill:#dc2627;}</style></defs><path class="cls-1" d="M19.29,42.29A23.37,23.37,0,0,1,2.72,35.43a.85.85,0,0,1,1.2-1.2,21.74,21.74,0,0,0,30.7,0,21.51,21.51,0,0,0,6.29-15.43,21.6,21.6,0,0,0-6.29-15.3.83.83,0,0,1,0-1.2.85.85,0,0,1,1.2,0,23.28,23.28,0,0,1,6.79,16.49A23.25,23.25,0,0,1,19.29,42.29Z"/><path class="cls-1" d="M28.21,51.66A28.29,28.29,0,0,1,8.12,43.29a27.38,27.38,0,0,1-5.58-8.11A.86.86,0,0,1,3,34.05a.85.85,0,0,1,1.12.43A25.69,25.69,0,0,0,9.32,42.1a26.46,26.46,0,0,0,29.44,5.62A26,26,0,0,0,52.51,33,26.12,26.12,0,0,0,52,13a.85.85,0,0,1,1.55-.69A27.77,27.77,0,0,1,54.1,33.6,27.57,27.57,0,0,1,28.21,51.66Z"/><path class="cls-1" d="M25.86,46.71c-.53,0-1.07,0-1.61-.06A.85.85,0,1,1,24.37,45a21.87,21.87,0,0,0,21.35-12.6A21.88,21.88,0,0,0,35,3.58.85.85,0,1,1,35.67,2a23.59,23.59,0,0,1,11.6,31A23.57,23.57,0,0,1,25.86,46.71Z"/><path class="cls-2" d="M19.11,38.21a19.11,19.11,0,1,1,19.1-19.1A19.13,19.13,0,0,1,19.11,38.21Zm0-36.51a17.41,17.41,0,1,0,17.4,17.41A17.43,17.43,0,0,0,19.11,1.7Z"/><rect class="cls-1" x="45.1" y="3.59" width="3.61" height="3.61" rx="0.38" transform="matrix(0.83, -0.56, 0.56, 0.83, 5.09, 27.33)"/><rect class="cls-1" x="50.74" y="3.99" width="1.96" height="1.96" rx="0.38" transform="translate(5.21 28.13) rotate(-31.96)"/><rect class="cls-1" x="49.8" y="7.9" width="2.71" height="2.71" rx="0.38" transform="translate(1.85 25.74) rotate(-28.74)"/><path class="cls-1" d="M76.56,38.52a12.82,12.82,0,0,1-4.94-.93A11.52,11.52,0,0,1,67.71,35a11.8,11.8,0,0,1-2.57-3.93,13,13,0,0,1-.91-4.94,13,13,0,0,1,.91-4.92,11.86,11.86,0,0,1,2.57-3.92,11.54,11.54,0,0,1,3.91-2.6,13.53,13.53,0,0,1,9.86,0,11.78,11.78,0,0,1,3.92,2.6A11.44,11.44,0,0,1,88,21.21a13.67,13.67,0,0,1,0,9.86A11.38,11.38,0,0,1,85.4,35a11.76,11.76,0,0,1-3.92,2.59A12.79,12.79,0,0,1,76.56,38.52Zm0-2.29a10.3,10.3,0,0,0,4-.75,9.49,9.49,0,0,0,3.17-2.14,9.66,9.66,0,0,0,2.08-3.21,10.51,10.51,0,0,0,.75-4,10.36,10.36,0,0,0-.75-4,9.81,9.81,0,0,0-2.08-3.22,9.32,9.32,0,0,0-3.17-2.13,10.75,10.75,0,0,0-7.94,0,9.23,9.23,0,0,0-3.17,2.13,9.83,9.83,0,0,0-2.09,3.22,10.54,10.54,0,0,0-.74,4,10.7,10.7,0,0,0,.74,4,9.69,9.69,0,0,0,2.09,3.21,9.4,9.4,0,0,0,3.17,2.14A10.33,10.33,0,0,0,76.56,36.23Z"/><path class="cls-1" d="M95.08,38.21a1.17,1.17,0,0,1-.85-.35,1.16,1.16,0,0,1-.36-.85V15.28a1.15,1.15,0,0,1,.36-.87,1.2,1.2,0,0,1,.85-.34,1.16,1.16,0,0,1,1.08.62L106.58,35.4h-1.06l10.24-20.71a1.18,1.18,0,0,1,1.08-.62,1.16,1.16,0,0,1,.83.34,1.18,1.18,0,0,1,.34.87V37a1.18,1.18,0,0,1-.34.85,1.13,1.13,0,0,1-.83.35,1.21,1.21,0,0,1-.88-.35,1.16,1.16,0,0,1-.36-.85V18.4l.53,0L107,37.07a1.21,1.21,0,0,1-2.16-.16L95.67,18.55l.61-.15V37a1.2,1.2,0,0,1-1.2,1.2Z"/><path class="cls-1" d="M122.86,38.21a1,1,0,0,1-1-.58,1.27,1.27,0,0,1-.07-1.15l9.09-21.57a1.2,1.2,0,0,1,1.17-.84,1.18,1.18,0,0,1,1.15.84l9.12,21.6a1.13,1.13,0,0,1-.08,1.15,1.12,1.12,0,0,1-1,.55,1.27,1.27,0,0,1-.67-.18,1.33,1.33,0,0,1-.48-.56l-8.5-20.62h1L124,37.47a1.21,1.21,0,0,1-.45.56A1.27,1.27,0,0,1,122.86,38.21Zm2-5.75.93-2.07h12.55l.93,2.07Z"/><path class="cls-1" d="M147.13,38.21a1.16,1.16,0,0,1-1.21-1.2V15.28a1.16,1.16,0,0,1,1.21-1.21h5.78a8.52,8.52,0,0,1,4,.94,7.06,7.06,0,0,1,2.76,2.63,7.46,7.46,0,0,1,1,3.88,6.95,6.95,0,0,1-3.77,6.31,8.63,8.63,0,0,1-4,.92h-4.58V37a1.16,1.16,0,0,1-1.2,1.2Zm1.2-11.77h4.58a6,6,0,0,0,2.8-.64,5,5,0,0,0,1.93-1.74,4.67,4.67,0,0,0,.71-2.54A4.91,4.91,0,0,0,155.71,17a5.93,5.93,0,0,0-2.8-.65h-4.58Zm11.72,11.77a1.13,1.13,0,0,1-.63-.15,1.39,1.39,0,0,1-.42-.47l-5.94-9.45,2.41-.62L161,36.36a1.27,1.27,0,0,1,.17,1.3A1.17,1.17,0,0,1,160.05,38.21Z"/><path class="cls-2" d="M172.75,38.21a1.07,1.07,0,0,1-1-.58,1.3,1.3,0,0,1-.06-1.15l9.09-21.57a1.22,1.22,0,0,1,2.32,0l9.11,21.6a1.19,1.19,0,0,1-1.08,1.7,1.23,1.23,0,0,1-.66-.18,1.33,1.33,0,0,1-.48-.56l-8.5-20.62h1l-8.56,20.62a1.14,1.14,0,0,1-1.12.74Zm2-5.75.93-2.07h12.55l.93,2.07Z"/><path class="cls-2" d="M197,38.21a1.16,1.16,0,0,1-.85-.34,1.12,1.12,0,0,1-.36-.86V15.28A1.23,1.23,0,0,1,197,14.07a1.16,1.16,0,0,1,.85.36,1.17,1.17,0,0,1,.35.85V35.93h12.09a1.2,1.2,0,0,1,.85.32,1.14,1.14,0,0,1,0,1.64,1.25,1.25,0,0,1-.85.32Z"/><path class="cls-2" d="M214.05,38.21a1,1,0,0,1-1-.58,1.27,1.27,0,0,1-.07-1.15l9.09-21.57a1.2,1.2,0,0,1,1.18-.84,1.18,1.18,0,0,1,1.14.84l9.12,21.6a1.13,1.13,0,0,1-.08,1.15,1.12,1.12,0,0,1-1,.55,1.27,1.27,0,0,1-.67-.18,1.49,1.49,0,0,1-.48-.56l-8.5-20.62h1l-8.56,20.62a1.15,1.15,0,0,1-.45.56A1.23,1.23,0,0,1,214.05,38.21Zm2-5.75.92-2.07h12.55l.93,2.07Z"/><path class="cls-2" d="M238.31,38.21a1.19,1.19,0,0,1-.85-.35,1.16,1.16,0,0,1-.36-.85V15.28a1.15,1.15,0,0,1,.36-.87,1.22,1.22,0,0,1,.85-.34,1.14,1.14,0,0,1,1.08.62L249.81,35.4h-1.05L259,14.69a1.2,1.2,0,0,1,1.08-.62,1.14,1.14,0,0,1,.83.34,1.18,1.18,0,0,1,.34.87V37a1.18,1.18,0,0,1-.34.85,1.11,1.11,0,0,1-.83.35,1.22,1.22,0,0,1-.88-.35,1.16,1.16,0,0,1-.36-.85V18.4l.53,0-9.12,18.64a1.21,1.21,0,0,1-2.16-.16L238.9,18.55l.62-.15V37a1.16,1.16,0,0,1-.36.85A1.19,1.19,0,0,1,238.31,38.21Z"/><path class="cls-2" d="M266.1,38.21a1,1,0,0,1-1-.58,1.24,1.24,0,0,1-.06-1.15l9.08-21.57a1.2,1.2,0,0,1,1.18-.84,1.18,1.18,0,0,1,1.14.84l9.12,21.6a1.2,1.2,0,0,1-1.08,1.7,1.27,1.27,0,0,1-.67-.18,1.49,1.49,0,0,1-.48-.56l-8.5-20.62h1l-8.56,20.62a1.15,1.15,0,0,1-.45.56A1.21,1.21,0,0,1,266.1,38.21Zm2-5.75.93-2.07h12.54l.93,2.07Z"/></svg>